<?xml version="1.0" standalone="no"?>
<!DOCTYPE svg PUBLIC "-//W3C//DTD SVG 20010904//EN"
 "http://www.w3.org/TR/2001/REC-SVG-20010904/DTD/svg10.dtd">
<svg version="1.0" xmlns="http://www.w3.org/2000/svg"
 width="500.000000pt" height="500.000000pt" viewBox="0 0 500.000000 500.000000"
 preserveAspectRatio="xMidYMid meet">
<metadata>
Created by potrace 1.14, written by Peter Selinger 2001-2017
</metadata>
<g transform="translate(0.000000,500.000000) scale(0.100000,-0.100000)"
fill="#000000" stroke="none">
<path d="M2362 3471 c-125 -46 -191 -120 -232 -258 -10 -32 -18 -43 -34 -44
-103 -3 -219 -79 -251 -163 -28 -73 -6 -147 60 -205 35 -30 38 -31 50 -14 11
15 9 22 -17 51 -66 75 -65 151 1 210 45 40 83 55 158 60 l71 5 7 46 c23 160
144 273 292 273 41 0 85 -7 110 -17 49 -20 101 -74 109 -113 4 -19 18 -33 47
-47 66 -32 77 -50 77 -122 0 -45 4 -63 13 -63 26 0 37 25 37 80 0 47 -5 63
-27 92 -16 20 -43 45 -60 57 -18 11 -41 38 -52 58 -41 80 -120 125 -231 130
-57 3 -88 -1 -128 -16z"/>
<path d="M2637 3187 c-59 -123 -67 -250 -22 -337 21 -41 34 -45 45 -13 17 47
51 106 87 151 19 23 33 46 31 51 -7 20 -114 180 -119 181 -4 0 -14 -15 -22
-33z"/>
<path d="M3080 3124 c-70 -18 -207 -85 -242 -118 -50 -47 -148 -211 -148 -247
0 -17 60 -69 79 -69 10 0 44 9 76 20 162 56 256 157 330 354 14 37 25 69 25
71 0 9 -66 4 -120 -11z"/>
<path d="M832 2787 c-17 -24 -32 -49 -34 -56 -2 -11 71 -13 357 -13 198 0 365
1 372 1 6 1 25 26 41 56 l30 55 -367 0 -368 0 -31 -43z"/>
<path d="M3609 2774 l41 -58 148 -1 c168 -2 207 -14 252 -81 33 -50 36 -168 4
-211 -35 -48 -85 -66 -188 -67 l-91 -1 0 128 0 127 -62 0 -63 0 0 -368 0 -368
60 0 c33 0 61 4 63 10 2 6 3 104 2 219 0 114 3 207 6 207 4 0 26 -30 50 -67
41 -66 108 -170 195 -304 l43 -66 70 0 c82 0 83 -10 -11 129 -32 48 -58 91
-58 95 0 4 -20 37 -45 72 -25 36 -45 68 -45 71 0 4 17 12 39 18 49 15 125 82
154 136 31 58 31 191 1 257 -29 63 -86 123 -142 151 -44 21 -62 23 -256 26
l-209 4 42 -58z"/>
<path d="M1710 2673 c-34 -81 -74 -173 -87 -203 -14 -30 -40 -93 -58 -140 -18
-47 -44 -111 -59 -144 l-26 -58 23 6 c12 4 41 10 64 13 24 3 47 11 51 17 5 6
42 89 82 184 l73 173 69 -158 c38 -87 78 -178 89 -201 11 -24 29 -69 40 -100
12 -32 30 -77 42 -102 11 -25 25 -54 30 -66 7 -18 17 -21 73 -20 35 0 64 3 64
8 0 7 -114 270 -171 395 -10 24 -19 46 -19 49 0 10 -202 477 -210 487 -4 4
-35 -59 -70 -140z"/>
<path d="M3161 2780 c-76 -174 -131 -306 -131 -312 0 -4 -33 -86 -74 -181
-101 -238 -101 -220 -7 -174 l80 40 36 91 c20 50 55 133 77 184 41 93 41 93
54 65 7 -15 40 -91 73 -168 124 -290 172 -401 184 -425 11 -22 19 -25 75 -25
34 -1 62 3 62 7 0 5 -14 38 -30 74 -46 97 -108 241 -134 309 -13 33 -35 85
-49 115 -55 120 -137 310 -157 361 -33 88 -36 90 -59 39z"/>
<path d="M2053 2801 c-6 -3 -25 -30 -42 -58 l-30 -53 257 0 c295 0 331 -6 382
-68 51 -63 57 -160 13 -221 -31 -42 -83 -62 -172 -65 l-81 -3 0 129 0 128 -65
0 -66 0 3 -358 2 -358 63 0 63 -1 0 211 0 211 28 -50 c15 -27 37 -63 49 -80
41 -58 153 -243 153 -253 0 -23 36 -37 97 -38 34 -1 63 1 63 4 0 3 -36 65 -80
138 -44 72 -80 135 -80 139 0 4 -9 18 -20 32 -11 14 -20 29 -20 33 0 4 20 15
44 24 147 56 210 230 141 384 -31 70 -78 117 -150 152 -48 24 -58 25 -296 26
-135 1 -251 -1 -256 -5z"/>
<path d="M2938 2690 c-13 -8 -15 -16 -7 -43 18 -62 12 -88 -30 -126 -36 -33
-46 -60 -29 -77 12 -11 68 30 96 70 29 42 34 104 13 159 -11 29 -17 32 -43 17z"/>
<path d="M1143 2662 l-33 -3 0 -392 0 -392 60 -1 60 0 0 392 0 392 -27 3 c-16
2 -43 3 -60 1z"/>
<path d="M1697 2203 c-14 -32 -35 -81 -46 -109 l-19 -51 26 -30 c39 -45 145
-109 200 -122 75 -18 132 -21 132 -7 0 36 -95 237 -135 284 -24 29 -110 92
-125 92 -4 0 -19 -26 -33 -57z"/>
<path d="M3111 2207 c-6 -6 -11 -19 -11 -28 0 -13 11 -17 59 -18 33 0 72 -6
87 -11 15 -6 29 -8 32 -5 11 11 -31 43 -71 54 -68 19 -84 20 -96 8z"/>
<path d="M3074 2100 c-47 -10 -144 -56 -144 -69 0 -4 10 -13 23 -20 12 -6 36
-20 52 -31 72 -48 137 -71 199 -71 34 1 68 2 76 4 8 2 32 7 53 12 20 4 39 11
42 15 6 9 -34 61 -75 98 -61 56 -143 78 -226 62z"/>
<path d="M1545 2086 c-70 -19 -98 -43 -128 -109 -44 -97 -43 -102 27 -103 l59
0 25 55 c27 61 64 163 60 166 -2 1 -21 -3 -43 -9z"/>
<path d="M2831 1968 c-10 -24 -21 -55 -25 -69 -6 -26 -5 -26 55 -26 60 0 60 1
79 38 20 42 21 41 -48 78 l-42 23 -19 -44z"/>
<path d="M1121 1702 c-1 -8 -17 -50 -36 -93 -40 -92 -40 -89 -21 -89 8 0 18 9
21 20 5 15 15 20 40 20 25 0 35 -5 40 -20 4 -11 15 -20 26 -20 18 0 18 2 6 28
-8 15 -21 43 -29 62 -33 78 -47 104 -47 92z m29 -114 c0 -5 -11 -8 -25 -8 -29
0 -29 0 -13 35 l12 26 13 -23 c7 -13 12 -26 13 -30z"/>
<path d="M1314 1700 c-49 -19 -72 -91 -43 -138 9 -17 26 -33 36 -36 38 -11 69
-13 91 -5 18 7 22 16 22 48 0 42 -10 50 -47 43 -28 -5 -30 -22 -3 -22 15 0 19
-5 16 -22 -3 -19 -9 -23 -37 -21 -38 2 -59 25 -59 65 0 41 32 68 80 68 27 0
40 4 40 13 0 15 -62 19 -96 7z"/>
<path d="M1500 1613 c0 -76 3 -93 15 -93 10 0 15 11 15 35 0 22 5 35 13 35 7
0 19 -16 26 -35 8 -24 18 -35 32 -35 20 0 20 0 -1 34 l-21 35 20 20 c46 46 16
93 -61 96 l-38 1 0 -93z m80 52 c18 -21 5 -45 -25 -45 -21 0 -25 5 -25 30 0
23 5 30 19 30 10 0 24 -7 31 -15z"/>
<path d="M1699 1680 c-4 -103 -3 -133 3 -151 16 -42 28 -5 28 87 0 77 -3 94
-15 94 -10 0 -15 -10 -16 -30z"/>
<path d="M1860 1699 c-71 -28 -83 -136 -19 -170 34 -18 64 -20 85 -4 18 13 16
14 -18 15 -46 0 -78 28 -78 68 0 41 33 72 76 72 24 0 34 4 32 13 -6 16 -46 19
-78 6z"/>
<path d="M2015 1703 c-10 -3 -10 -133 0 -161 13 -36 115 -33 129 4 3 9 6 48 6
88 0 58 -3 73 -15 73 -12 0 -15 -15 -15 -72 0 -81 -12 -102 -55 -91 -23 6 -25
11 -26 71 -2 91 -3 96 -24 88z"/>
<path d="M2244 1699 c-5 -8 -9 -51 -10 -96 -1 -85 -1 -85 41 -85 46 0 65 3 65
12 0 6 -17 10 -38 10 l-38 0 1 75 c1 79 -6 107 -21 84z"/>
<path d="M2370 1693 c0 -7 9 -13 20 -13 21 0 21 0 22 -107 1 -43 4 -53 18 -53
15 0 17 10 16 80 l-1 80 28 0 c19 0 27 4 24 13 -5 17 -127 18 -127 0z"/>
<path d="M2570 1628 c0 -91 18 -120 71 -116 51 4 70 39 67 122 -2 39 -7 71
-13 71 -5 0 -11 -31 -13 -70 -3 -76 -13 -95 -47 -95 -29 0 -35 16 -35 99 0 53
-3 68 -15 68 -12 0 -15 -16 -15 -79z"/>
<path d="M2790 1614 c0 -77 3 -94 15 -94 10 0 15 11 15 35 0 22 5 35 13 35 7
0 21 -16 30 -35 11 -23 24 -35 37 -35 20 0 20 1 -4 36 -24 36 -25 37 -5 53 50
41 21 90 -55 95 l-46 4 0 -94z m74 60 c24 -9 19 -43 -6 -53 -30 -11 -38 -6
-38 30 0 29 12 35 44 23z"/>
<path d="M2990 1613 c0 -98 -2 -95 50 -95 46 0 60 3 60 12 0 6 -18 10 -40 10
-38 0 -40 1 -40 33 0 30 3 32 32 32 17 0 33 5 35 11 2 6 -4 11 -14 11 -47 0
-53 3 -53 28 0 23 4 25 41 25 28 0 39 4 37 13 -3 7 -24 12 -56 12 l-52 1 0
-93z"/>
<path d="M3270 1613 c0 -76 3 -93 15 -93 11 0 15 11 15 40 0 27 4 40 13 39 29
-4 57 2 57 11 0 6 -16 10 -35 10 -32 0 -35 2 -35 30 0 28 2 30 40 30 25 0 40
5 40 13 0 8 -18 12 -55 13 l-55 0 0 -93z"/>
<path d="M3470 1647 c-13 -34 -27 -66 -30 -72 -15 -22 -18 -55 -5 -55 7 0 15
9 18 20 4 16 14 20 45 20 31 0 41 -4 45 -20 3 -11 12 -20 21 -20 9 0 16 2 16
4 0 6 -76 176 -81 181 -3 2 -16 -24 -29 -58z m35 -27 c-3 -5 -1 -11 5 -15 18
-11 10 -25 -14 -25 -23 0 -24 2 -15 30 6 16 15 27 20 24 5 -3 7 -9 4 -14z"/>
<path d="M3649 1701 c-1 -3 -2 -45 -3 -93 -2 -64 1 -89 11 -92 11 -5 19 33 14
67 -3 21 30 2 48 -28 11 -19 27 -35 36 -35 20 0 19 6 -7 42 -19 28 -20 32 -5
43 25 18 31 59 12 79 -9 9 -22 17 -28 17 -54 5 -77 5 -78 0z m80 -40 c12 -21
-1 -37 -34 -43 -16 -2 -21 3 -23 30 -3 28 0 32 22 32 15 0 30 -8 35 -19z"/>
<path d="M3859 1688 c-2 -43 -10 -136 -13 -150 -3 -11 2 -18 10 -18 9 0 14 12
15 35 2 47 3 52 12 61 4 4 7 2 7 -4 0 -6 12 -31 28 -55 l27 -44 24 49 c13 26
27 46 31 43 4 -2 10 -23 14 -45 4 -26 11 -40 21 -40 18 0 18 -5 -4 100 l-17
85 -36 -69 -35 -70 -37 67 c-38 68 -46 77 -47 55z"/>
</g>
</svg>
